<?xml version="1.0" standalone="no"?>
<!DOCTYPE svg PUBLIC "-//W3C//DTD SVG 20010904//EN"
 "http://www.w3.org/TR/2001/REC-SVG-20010904/DTD/svg10.dtd">
<svg version="1.0" xmlns="http://www.w3.org/2000/svg"
 width="1080.000000pt" height="1080.000000pt" viewBox="0 0 1080.000000 1080.000000"
 preserveAspectRatio="xMidYMid meet">

<g transform="translate(0.000000,1080.000000) scale(0.100000,-0.100000)"
fill="#000000" stroke="none">
<path d="M0 5400 l0 -5400 5400 0 5400 0 0 5400 0 5400 -5400 0 -5400 0 0
-5400z m8029 754 c129 -32 254 -119 321 -224 45 -70 80 -186 80 -264 0 -73
-15 -95 -49 -76 -16 8 -21 21 -21 53 0 64 -36 182 -74 240 -75 117 -191 188
-342 210 -71 10 -89 16 -92 30 -10 49 58 60 177 31z m-7 -153 c98 -34 158 -82
212 -169 32 -51 58 -148 54 -200 -3 -34 -6 -37 -32 -37 -29 0 -30 2 -42 66
-21 114 -85 208 -171 252 -27 14 -111 34 -163 39 -25 3 -37 26 -26 54 8 21
101 18 168 -5z m-27 -146 c83 -34 148 -131 143 -213 -3 -45 -4 -47 -33 -47
-27 0 -30 4 -37 42 -15 89 -73 150 -150 160 -50 7 -68 18 -68 44 0 39 68 46
145 14z m-4352 -10 c74 -19 162 -75 188 -120 l21 -35 1978 0 c1828 0 1979 1
1991 17 26 30 77 45 115 33 45 -15 64 -45 64 -98 0 -36 -6 -49 -30 -72 l-30
-28 0 -174 c0 -156 -2 -176 -20 -206 -41 -67 109 -62 -2064 -62 l-1976 0 -52
-54 c-80 -81 -140 -98 -378 -103 -205 -5 -286 6 -364 52 -87 51 -232 40 -383
-30 -76 -35 -177 -97 -188 -115 -14 -23 -25 -7 -25 35 l0 45 68 34 c37 19 63
35 57 35 -5 1 -55 -22 -109 -49 -111 -56 -116 -55 -116 22 0 33 -4 47 -12 45
-14 -2 -20 56 -41 421 -7 117 -10 217 -7 221 8 11 89 33 100 26 15 -9 12 -56
-5 -69 -12 -9 -13 -27 -5 -106 5 -52 13 -149 20 -215 16 -175 17 -178 49 -171
99 22 136 27 216 27 50 0 108 -5 130 -10 58 -14 54 -6 -7 15 -43 15 -82 19
-200 18 -97 0 -148 4 -148 10 0 6 -9 139 -20 296 -11 157 -20 292 -20 300 0
16 57 42 133 61 76 18 191 7 264 -26 68 -30 110 -65 63 -51 -130 37 -219 38
-327 6 -50 -15 -49 -6 -28 -179 9 -69 21 -173 28 -230 l13 -104 44 -3 c116 -8
224 -42 303 -96 l27 -19 0 46 c0 35 6 51 25 70 21 21 33 25 89 25 80 0 103
-10 140 -61 15 -22 39 -45 53 -50 32 -12 285 -12 317 1 35 13 34 45 -1 64 -28
14 -190 56 -216 56 -33 0 -219 60 -267 86 -101 55 -151 148 -135 252 17 118
72 173 210 213 81 24 383 26 468 4z"/>
<path d="M3201 5820 c-142 -30 -222 -127 -207 -254 5 -46 36 -100 76 -134 40
-35 155 -75 317 -113 224 -51 264 -73 249 -132 -11 -45 -37 -52 -206 -52 -179
0 -200 6 -248 71 l-33 45 -72 -3 c-63 -3 -73 -6 -83 -26 -23 -47 17 -137 82
-181 72 -50 131 -64 281 -69 243 -7 375 21 443 94 75 81 79 192 11 275 -58 70
-122 94 -467 174 -96 22 -134 46 -134 84 0 20 9 36 26 50 24 19 40 21 181 21
l154 0 57 -60 c56 -59 59 -60 110 -60 43 0 58 5 77 25 30 29 31 47 6 100 -22
50 -68 90 -141 124 -53 25 -63 26 -245 28 -104 1 -210 -2 -234 -7z"/>
<path d="M7870 5717 c-65 -33 -64 -108 2 -140 34 -17 39 -17 67 -2 54 28 66
77 29 119 -28 31 -65 40 -98 23z"/>
<path d="M4066 5578 c-13 -7 -16 -31 -16 -129 0 -137 11 -174 61 -210 46 -32
178 -40 230 -14 71 37 79 61 79 225 0 139 -3 146 -57 131 l-28 -7 -5 -133 c-6
-154 -10 -161 -94 -161 -86 0 -96 18 -96 178 l0 120 -29 4 c-17 2 -37 0 -45
-4z"/>
<path d="M4630 5581 c-12 -8 -15 -40 -15 -181 0 -141 3 -173 15 -181 9 -6 58
-8 126 -6 173 8 229 45 241 163 10 90 -26 161 -97 190 -43 18 -249 30 -270 15z
m220 -74 c46 -16 62 -48 57 -120 -5 -82 -24 -99 -121 -105 l-76 -5 0 122 0
121 53 -1 c28 0 68 -5 87 -12z"/>
<path d="M5330 5581 c-59 -12 -95 -37 -113 -78 -12 -28 -77 -263 -77 -278 0
-2 10 -5 22 -8 42 -11 66 2 80 46 l13 42 95 0 95 0 3 -42 c2 -24 8 -43 15 -44
7 0 20 -2 31 -4 44 -9 46 -3 46 185 0 153 -2 179 -16 184 -20 8 -149 6 -194
-3z m120 -136 l0 -75 -85 0 c-61 0 -85 3 -85 13 0 42 16 90 36 112 19 21 32
25 79 25 l55 0 0 -75z"/>
<path d="M5753 5584 c-10 -4 -13 -51 -13 -185 l0 -179 26 -6 c15 -4 72 -4 127
-1 173 11 227 56 227 187 0 136 -54 178 -240 185 -63 3 -121 2 -127 -1z m255
-99 c32 -38 32 -133 -1 -171 -21 -24 -32 -27 -100 -32 l-77 -5 0 123 0 123 78
-6 c67 -5 80 -9 100 -32z"/>
<path d="M6313 5583 c-10 -3 -13 -50 -13 -183 0 -153 2 -179 16 -184 9 -3 85
-6 169 -6 141 0 154 2 160 19 3 10 3 26 -1 35 -5 14 -24 16 -131 16 l-124 0 3
43 3 42 107 3 c82 2 107 6 112 17 7 19 -3 45 -18 46 -6 1 -15 2 -21 4 -5 1
-49 3 -97 3 l-88 2 0 40 0 40 124 0 c77 0 127 4 131 11 4 5 4 21 1 35 l-6 24
-158 -1 c-86 0 -163 -3 -169 -6z"/>
<path d="M6895 5581 c-49 -12 -75 -34 -87 -73 -9 -31 -8 -41 6 -62 25 -40 56
-55 161 -81 109 -27 125 -36 109 -63 -9 -13 -28 -18 -92 -20 -76 -3 -83 -1
-104 23 -25 29 -75 34 -85 9 -10 -26 19 -66 62 -85 44 -21 161 -25 230 -9 81
18 112 101 58 154 -24 24 -58 37 -199 75 -52 14 -72 35 -54 56 9 11 33 15 86
15 66 0 76 -3 97 -26 17 -19 32 -25 53 -22 65 7 27 85 -52 107 -43 12 -143 13
-189 2z"/>
<path d="M7378 5583 c-16 -4 -18 -21 -18 -183 l0 -179 36 -7 c19 -3 39 -3 44
2 5 5 10 41 12 79 3 64 5 70 26 73 50 7 89 -17 128 -79 21 -34 49 -65 62 -70
29 -11 75 -1 69 16 -11 27 -77 122 -100 144 l-26 23 30 25 c31 27 95 140 84
151 -3 3 -22 5 -41 5 -39 -1 -51 -13 -85 -81 -11 -23 -28 -46 -37 -51 -25 -12
-87 -20 -100 -12 -6 3 -12 38 -14 76 -3 67 -4 70 -28 72 -14 0 -33 -1 -42 -4z"/>
<path d="M2660 5093 c-46 -5 -211 -43 -230 -54 -9 -5 -2 -6 18 -3 28 6 32 4
32 -16 0 -17 4 -21 18 -15 122 49 204 69 307 74 92 4 103 6 65 12 -46 8 -147
9 -210 2z"/>
<path d="M2768 5043 c6 -2 18 -2 25 0 6 3 1 5 -13 5 -14 0 -19 -2 -12 -5z"/>
<path d="M2676 5024 c-26 -9 -46 -17 -44 -19 2 -2 31 4 63 14 33 11 53 19 45
19 -8 1 -37 -6 -64 -14z"/>
</g>
</svg>
